<svg width="17" height="17" viewBox="0 0 17 17" fill="none" xmlns="http://www.w3.org/2000/svg">
<path fill-rule="evenodd" clip-rule="evenodd" d="M1.41667 4.25033C1.41667 3.85912 1.7338 3.54199 2.12501 3.54199H14.875C15.2662 3.54199 15.5833 3.85912 15.5833 4.25033C15.5833 4.64153 15.2662 4.95866 14.875 4.95866H2.12501C1.7338 4.95866 1.41667 4.64153 1.41667 4.25033Z" fill="#fff"/>
<path fill-rule="evenodd" clip-rule="evenodd" d="M1.41667 8.50033C1.41667 8.10912 1.7338 7.79199 2.12501 7.79199H10.625C11.0162 7.79199 11.3333 8.10912 11.3333 8.50033C11.3333 8.89153 11.0162 9.20866 10.625 9.20866H2.12501C1.7338 9.20866 1.41667 8.89153 1.41667 8.50033Z" fill="#fff"/>
<path fill-rule="evenodd" clip-rule="evenodd" d="M1.41667 12.7503C1.41667 12.3591 1.7338 12.042 2.12501 12.042H12.0417C12.4329 12.042 12.75 12.3591 12.75 12.7503C12.75 13.1415 12.4329 13.4587 12.0417 13.4587H2.12501C1.7338 13.4587 1.41667 13.1415 1.41667 12.7503Z" fill="#fff"/>
</svg>
