<svg width="17" height="17" viewBox="0 0 17 17" fill="none" xmlns="http://www.w3.org/2000/svg">
<path fill-rule="evenodd" clip-rule="evenodd" d="M12.5425 4.45747C12.8192 4.73409 12.8192 5.18258 12.5425 5.4592L5.4592 12.5425C5.18258 12.8192 4.73409 12.8192 4.45747 12.5425C4.18084 12.2659 4.18084 11.8174 4.45747 11.5408L11.5408 4.45747C11.8174 4.18084 12.2659 4.18084 12.5425 4.45747Z" fill="#fff"/>
<path fill-rule="evenodd" clip-rule="evenodd" d="M4.25 4.95833C4.25 4.56713 4.56713 4.25 4.95833 4.25H12.0417C12.4329 4.25 12.75 4.56713 12.75 4.95833V12.0417C12.75 12.4329 12.4329 12.75 12.0417 12.75C11.6505 12.75 11.3333 12.4329 11.3333 12.0417V5.66667H4.95833C4.56713 5.66667 4.25 5.34953 4.25 4.95833Z" fill="#fff"/>
</svg>
