<svg width="20" height="21" viewBox="0 0 20 21" fill="none" xmlns="http://www.w3.org/2000/svg">
<path fill-rule="evenodd" clip-rule="evenodd" d="M10 2.99967C5.85786 2.99967 2.5 6.35754 2.5 10.4997C2.5 14.6418 5.85786 17.9997 10 17.9997C14.1421 17.9997 17.5 14.6418 17.5 10.4997C17.5 6.35754 14.1421 2.99967 10 2.99967ZM0.833332 10.4997C0.833332 5.43706 4.93739 1.33301 10 1.33301C15.0626 1.33301 19.1667 5.43706 19.1667 10.4997C19.1667 15.5623 15.0626 19.6663 10 19.6663C4.93739 19.6663 0.833332 15.5623 0.833332 10.4997Z" fill="#fff"/>
<path fill-rule="evenodd" clip-rule="evenodd" d="M9.41074 6.57709C9.73618 6.25165 10.2638 6.25165 10.5893 6.57709L13.9226 9.91042C14.248 10.2359 14.248 10.7635 13.9226 11.0889L10.5893 14.4223C10.2638 14.7477 9.73618 14.7477 9.41074 14.4223C9.08531 14.0968 9.08531 13.5692 9.41074 13.2438L12.1548 10.4997L9.41074 7.7556C9.08531 7.43016 9.08531 6.90252 9.41074 6.57709Z" fill="#fff"/>
<path fill-rule="evenodd" clip-rule="evenodd" d="M5.83333 10.4997C5.83333 10.0394 6.20643 9.66634 6.66667 9.66634H13.3333C13.7936 9.66634 14.1667 10.0394 14.1667 10.4997C14.1667 10.9599 13.7936 11.333 13.3333 11.333H6.66667C6.20643 11.333 5.83333 10.9599 5.83333 10.4997Z" fill="#fff"/>
</svg>
