<svg width="30" height="30" viewBox="0 0 30 30" fill="none" xmlns="http://www.w3.org/2000/svg">
<path d="M19.1546 11.2543C19.2745 11.2543 19.3895 11.2066 19.4743 11.1218C19.5591 11.037 19.6068 10.922 19.6068 10.8021C19.6068 10.6822 19.5591 10.5671 19.4743 10.4823C19.3895 10.3975 19.2745 10.3499 19.1546 10.3499C19.0346 10.3499 18.9196 10.3975 18.8348 10.4823C18.75 10.5671 18.7024 10.6822 18.7024 10.8021C18.7024 10.922 18.75 11.037 18.8348 11.1218C18.9196 11.2066 19.0346 11.2543 19.1546 11.2543ZM8.83066 15.2676C8.83066 15.327 8.81897 15.3858 8.79624 15.4406C8.77352 15.4955 8.74021 15.5453 8.69822 15.5873C8.65623 15.6293 8.60638 15.6626 8.55152 15.6853C8.49666 15.7081 8.43786 15.7198 8.37848 15.7198C8.31909 15.7198 8.26029 15.7081 8.20543 15.6853C8.15057 15.6626 8.10072 15.6293 8.05873 15.5873C8.01674 15.5453 7.98343 15.4955 7.96071 15.4406C7.93798 15.3858 7.92629 15.327 7.92629 15.2676C7.92629 15.1476 7.97393 15.0326 8.05873 14.9478C8.14353 14.863 8.25855 14.8154 8.37848 14.8154C8.4984 14.8154 8.61342 14.863 8.69822 14.9478C8.78302 15.0326 8.83066 15.1476 8.83066 15.2676ZM15.1413 21.5873C15.1413 21.7072 15.0936 21.8222 15.0088 21.907C14.924 21.9918 14.809 22.0395 14.6891 22.0395C14.5692 22.0395 14.4542 21.9918 14.3694 21.907C14.2846 21.8222 14.2369 21.7072 14.2369 21.5873C14.2421 21.471 14.292 21.3612 14.3762 21.2807C14.4603 21.2003 14.5722 21.1554 14.6886 21.1554C14.8051 21.1554 14.917 21.2003 15.0011 21.2807C15.0853 21.3612 15.1361 21.471 15.1413 21.5873ZM13.6583 11.5163C13.6583 11.6362 13.6106 11.7513 13.5258 11.8361C13.441 11.9209 13.326 11.9685 13.2061 11.9685C13.0861 11.9685 12.9711 11.9209 12.8863 11.8361C12.8015 11.7513 12.7539 11.6362 12.7539 11.5163C12.7539 11.3964 12.8015 11.2814 12.8863 11.1966C12.9711 11.1118 13.0861 11.0641 13.2061 11.0641C13.326 11.0641 13.441 11.1118 13.5258 11.1966C13.6106 11.2814 13.6583 11.3964 13.6583 11.5163ZM16.1803 19.481C16.3002 19.481 16.4153 19.4334 16.5001 19.3486C16.5849 19.2638 16.6325 19.1488 16.6325 19.0288C16.6325 18.9089 16.5849 18.7939 16.5001 18.7091C16.4153 18.6243 16.3002 18.5766 16.1803 18.5766C16.0604 18.5766 15.9454 18.6243 15.8606 18.7091C15.7758 18.7939 15.7281 18.9089 15.7281 19.0288C15.7281 19.1488 15.7758 19.2638 15.8606 19.3486C15.9454 19.4334 16.0604 19.481 16.1803 19.481ZM11.38 16.7597C11.38 16.8191 11.3683 16.8779 11.3456 16.9327C11.3229 16.9876 11.2896 17.0375 11.2476 17.0794C11.2056 17.1214 11.1557 17.1547 11.1009 17.1775C11.046 17.2002 10.9872 17.2119 10.9278 17.2119C10.8685 17.2119 10.8097 17.2002 10.7548 17.1775C10.6999 17.1547 10.6501 17.1214 10.6081 17.0794C10.5661 17.0375 10.5328 16.9876 10.5101 16.9327C10.4873 16.8779 10.4756 16.8191 10.4756 16.7597C10.4756 16.6398 10.5233 16.5248 10.6081 16.44C10.6929 16.3552 10.8079 16.3075 10.9278 16.3075C11.0478 16.3075 11.1628 16.3552 11.2476 16.44C11.3324 16.5248 11.38 16.6398 11.38 16.7597ZM18.4495 14.2376C18.5694 14.2376 18.6844 14.19 18.7692 14.1052C18.854 14.0204 18.9016 13.9054 18.9016 13.7854C18.9016 13.6655 18.854 13.5505 18.7692 13.4657C18.6844 13.3809 18.5694 13.3333 18.4495 13.3333C18.3332 13.3385 18.2233 13.3884 18.1429 13.4725C18.0624 13.5566 18.0175 13.6686 18.0175 13.785C18.0175 13.9014 18.0624 14.0133 18.1429 14.0975C18.2233 14.1816 18.3332 14.2315 18.4495 14.2367M14.6891 9.41004C14.809 9.41004 14.924 9.3624 15.0088 9.2776C15.0936 9.1928 15.1413 9.07778 15.1413 8.95786C15.1413 8.83793 15.0936 8.72291 15.0088 8.63811C14.924 8.55331 14.809 8.50567 14.6891 8.50567C14.5692 8.50567 14.4542 8.55331 14.3694 8.63811C14.2846 8.72291 14.2369 8.83793 14.2369 8.95786C14.2369 9.07778 14.2846 9.1928 14.3694 9.2776C14.4542 9.3624 14.5692 9.41004 14.6891 9.41004ZM10.2227 11.2543C10.3426 11.2543 10.4577 11.2066 10.5425 11.1218C10.6273 11.037 10.6749 10.922 10.6749 10.8021C10.6749 10.6822 10.6273 10.5671 10.5425 10.4823C10.4577 10.3975 10.3426 10.3499 10.2227 10.3499C10.1028 10.3499 9.98777 10.3975 9.90297 10.4823C9.81817 10.5671 9.77053 10.6822 9.77053 10.8021C9.77053 10.922 9.81817 11.037 9.90297 11.1218C9.98777 11.2066 10.1028 11.2543 10.2227 11.2543ZM19.6068 19.734C19.6068 19.8539 19.5591 19.9689 19.4743 20.0537C19.3895 20.1385 19.2745 20.1861 19.1546 20.1861C19.0346 20.1861 18.9196 20.1385 18.8348 20.0537C18.75 19.9689 18.7024 19.8539 18.7024 19.734C18.7024 19.614 18.75 19.499 18.8348 19.4142C18.9196 19.3294 19.0346 19.2818 19.1546 19.2818C19.2745 19.2818 19.3895 19.3294 19.4743 19.4142C19.5591 19.499 19.6068 19.614 19.6068 19.734ZM21.0079 15.7198C21.1278 15.7198 21.2429 15.6721 21.3277 15.5873C21.4125 15.5025 21.4601 15.3875 21.4601 15.2676C21.4601 15.1476 21.4125 15.0326 21.3277 14.9478C21.2429 14.863 21.1278 14.8154 21.0079 14.8154C20.888 14.8154 20.773 14.863 20.6882 14.9478C20.6034 15.0326 20.5557 15.1476 20.5557 15.2676C20.5557 15.3875 20.6034 15.5025 20.6882 15.5873C20.773 15.6721 20.888 15.7198 21.0079 15.7198ZM10.6749 19.734C10.6749 19.7933 10.6632 19.8521 10.6405 19.907C10.6178 19.9619 10.5845 20.0117 10.5425 20.0537C10.5005 20.0957 10.4506 20.129 10.3958 20.1517C10.3409 20.1744 10.2821 20.1861 10.2227 20.1861C10.1633 20.1861 10.1045 20.1744 10.0497 20.1517C9.99481 20.129 9.94496 20.0957 9.90297 20.0537C9.86098 20.0117 9.82767 19.9619 9.80495 19.907C9.78222 19.8521 9.77053 19.7933 9.77053 19.734C9.77053 19.614 9.81817 19.499 9.90297 19.4142C9.98777 19.3294 10.1028 19.2818 10.2227 19.2818C10.3426 19.2818 10.4577 19.3294 10.5425 19.4142C10.6273 19.499 10.6749 19.614 10.6749 19.734ZM10.9824 14.1194C11.0435 14.1221 11.1044 14.1124 11.1616 14.091C11.2188 14.0695 11.271 14.0367 11.3152 13.9945C11.3594 13.9522 11.3945 13.9015 11.4185 13.8453C11.4425 13.7892 11.4549 13.7287 11.4549 13.6676C11.4549 13.6065 11.4425 13.5461 11.4185 13.4899C11.3945 13.4337 11.3594 13.383 11.3152 13.3408C11.271 13.2986 11.2188 13.2657 11.1616 13.2443C11.1044 13.2228 11.0435 13.2131 10.9824 13.2159C10.8661 13.2211 10.7563 13.271 10.6759 13.3551C10.5954 13.4393 10.5505 13.5512 10.5505 13.6676C10.5505 13.784 10.5954 13.896 10.6759 13.9801C10.7563 14.0643 10.8661 14.1141 10.9824 14.1194ZM18.8571 16.8771C18.8571 16.997 18.8094 17.112 18.7246 17.1968C18.6398 17.2816 18.5248 17.3293 18.4049 17.3293C18.2849 17.3293 18.1699 17.2816 18.0851 17.1968C18.0003 17.112 17.9527 16.997 17.9527 16.8771C17.9579 16.7608 18.0078 16.651 18.0919 16.5705C18.1761 16.4901 18.288 16.4452 18.4044 16.4452C18.5208 16.4452 18.6328 16.4901 18.7169 16.5705C18.8011 16.651 18.8518 16.7608 18.8571 16.8771ZM13.0796 19.4355C13.1995 19.4355 13.3145 19.3879 13.3993 19.3031C13.4841 19.2183 13.5318 19.1033 13.5318 18.9833C13.5318 18.8634 13.4841 18.7484 13.3993 18.6636C13.3145 18.5788 13.1995 18.5312 13.0796 18.5312C12.9597 18.5312 12.8447 18.5788 12.7599 18.6636C12.6751 18.7484 12.6274 18.8634 12.6274 18.9833C12.6274 19.1033 12.6751 19.2183 12.7599 19.3031C12.8447 19.3879 12.9597 19.4355 13.0796 19.4355ZM16.7499 11.5609C16.7526 11.6219 16.743 11.6829 16.7215 11.7401C16.7 11.7973 16.6672 11.8495 16.625 11.8937C16.5828 11.9378 16.532 11.973 16.4759 11.997C16.4197 12.021 16.3592 12.0334 16.2981 12.0334C16.2371 12.0334 16.1766 12.021 16.1204 11.997C16.0643 11.973 16.0135 11.9378 15.9713 11.8937C15.9291 11.8495 15.8963 11.7973 15.8748 11.7401C15.8533 11.6829 15.8437 11.6219 15.8464 11.5609C15.8516 11.4446 15.9015 11.3348 15.9857 11.2543C16.0698 11.1739 16.1817 11.129 16.2981 11.129C16.4146 11.129 16.5265 11.1739 16.6106 11.2543C16.6948 11.3348 16.7447 11.4446 16.7499 11.5609ZM14.3179 17.4648H15.2314C15.5188 17.4653 15.8035 17.409 16.0692 17.2992C16.3348 17.1894 16.5762 17.0282 16.7794 16.8249C16.9826 16.6216 17.1437 16.3802 17.2534 16.1145C17.363 15.8488 17.4192 15.5641 17.4186 15.2767C17.4181 14.6967 17.1875 14.1407 16.7774 13.7306C16.3674 13.3205 15.8113 13.0899 15.2314 13.0894H14.317C13.7371 13.0901 13.1812 13.3208 12.7712 13.7308C12.3611 14.1409 12.1305 14.6968 12.1297 15.2767C12.1302 15.8567 12.3608 16.4128 12.7708 16.8231C13.1809 17.2333 13.7379 17.4641 14.3179 17.4648Z" fill="#fff"/>
<path d="M25.7251 18.1563C27.1165 12.7551 23.5239 6.91321 17.3295 5.3174C11.1349 3.72169 5.16623 7.10071 3.77487 12.502C2.38369 17.9032 5.9771 23.7446 12.1716 25.3403L11.7177 27.1024L11.3899 27.0143C4.65708 25.111 0.497609 18.6582 1.93878 12.3529L2.01272 12.0481C3.68775 5.5456 10.7487 1.74313 17.7834 3.55526L18.1112 3.64337C24.9523 5.57759 29.1361 12.2094 27.4873 18.6103L27.4056 18.9131C25.5923 25.2301 18.6423 28.8861 11.7177 27.1024L12.1716 25.3403C18.366 26.9358 24.3336 23.5574 25.7251 18.1563Z" fill="#fff"/>
</svg>
