<svg width="20" height="20" viewBox="0 0 20 20" fill="none" xmlns="http://www.w3.org/2000/svg">
<path fill-rule="evenodd" clip-rule="evenodd" d="M15 7.5C15.4603 7.5 15.8334 7.8731 15.8334 8.33333V16.6667C15.8334 17.1269 15.4603 17.5 15 17.5C14.5398 17.5 14.1667 17.1269 14.1667 16.6667V8.33333C14.1667 7.8731 14.5398 7.5 15 7.5Z" fill="#fff"/>
<path fill-rule="evenodd" clip-rule="evenodd" d="M10 2.5C10.4603 2.5 10.8334 2.8731 10.8334 3.33333V16.6667C10.8334 17.1269 10.4603 17.5 10 17.5C9.53978 17.5 9.16669 17.1269 9.16669 16.6667V3.33333C9.16669 2.8731 9.53978 2.5 10 2.5Z" fill="#fff"/>
<path fill-rule="evenodd" clip-rule="evenodd" d="M5.00002 10.8333C5.46026 10.8333 5.83335 11.2064 5.83335 11.6667V16.6667C5.83335 17.1269 5.46026 17.5 5.00002 17.5C4.53978 17.5 4.16669 17.1269 4.16669 16.6667V11.6667C4.16669 11.2064 4.53978 10.8333 5.00002 10.8333Z" fill="#fff"/>
</svg>
