<svg width="24" height="24" viewBox="0 0 24 24" fill="none" xmlns="http://www.w3.org/2000/svg">
<path d="M13.7305 18C13.3845 18.5973 12.7399 19 12 19C11.2601 19 10.6155 18.5973 10.2695 18H13.7305ZM12 5C12.5523 5.00004 13 5.44774 13 6C13 6.04204 12.9962 6.08334 12.9912 6.12402C14.7208 6.56504 16 8.13303 16 10V11.1719C16.0001 12.7176 16.6141 14.2 17.707 15.293C17.993 15.579 18.0786 16.0092 17.9238 16.3828C17.769 16.7564 17.4044 17 17 17H7C6.5956 17 6.23099 16.7564 6.07617 16.3828C5.9214 16.0091 6.00699 15.579 6.29297 15.293C7.38592 14.2 7.99992 12.7175 8 11.1719V10C8 8.13336 9.27864 6.56535 11.0078 6.12402C11.0028 6.08338 11 6.042 11 6C11 5.44772 11.4477 5 12 5ZM15.0332 11.8467C15.0394 11.9088 15.0488 11.9704 15.0566 12.0322C15.0456 11.9456 15.0355 11.8587 15.0273 11.7715L15.0332 11.8467ZM8.94629 12.0039C8.95273 11.9515 8.96157 11.8993 8.9668 11.8467L8.96875 11.8252C8.963 11.885 8.9536 11.9444 8.94629 12.0039Z" fill="#fff"/>
</svg>
