<svg width="20" height="21" viewBox="0 0 20 21" fill="none" xmlns="http://www.w3.org/2000/svg">
<path fill-rule="evenodd" clip-rule="evenodd" d="M3.33334 10.5002C3.33334 10.0399 3.70644 9.66683 4.16668 9.66683H15.8333C16.2936 9.66683 16.6667 10.0399 16.6667 10.5002C16.6667 10.9604 16.2936 11.3335 15.8333 11.3335H4.16668C3.70644 11.3335 3.33334 10.9604 3.33334 10.5002Z" fill="#fff"/>
<path fill-rule="evenodd" clip-rule="evenodd" d="M9.41075 4.07757C9.73619 3.75214 10.2638 3.75214 10.5893 4.07757L16.4226 9.91091C16.748 10.2363 16.748 10.764 16.4226 11.0894L10.5893 16.9228C10.2638 17.2482 9.73619 17.2482 9.41075 16.9228C9.08532 16.5973 9.08532 16.0697 9.41075 15.7442L14.6548 10.5002L9.41075 5.25609C9.08532 4.93065 9.08532 4.40301 9.41075 4.07757Z" fill="#fff"/>
</svg>
