<svg width="17" height="16" viewBox="0 0 17 16" fill="none" xmlns="http://www.w3.org/2000/svg">
<path fill-rule="evenodd" clip-rule="evenodd" d="M8.87502 1.33333C6.66588 1.33333 4.87502 3.12419 4.87502 5.33333C4.87502 7.54247 6.66588 9.33333 8.87502 9.33333C11.0842 9.33333 12.875 7.54247 12.875 5.33333C12.875 3.12419 11.0842 1.33333 8.87502 1.33333ZM3.54169 5.33333C3.54169 2.38781 5.9295 0 8.87502 0C11.8205 0 14.2084 2.38781 14.2084 5.33333C14.2084 8.27885 11.8205 10.6667 8.87502 10.6667C5.9295 10.6667 3.54169 8.27885 3.54169 5.33333Z" fill="#fff"/>
<path fill-rule="evenodd" clip-rule="evenodd" d="M11.314 8.59246C11.679 8.54403 12.0141 8.80066 12.0626 9.16565L12.8692 15.2457C12.9029 15.4994 12.7883 15.75 12.5743 15.8906C12.3604 16.0311 12.0849 16.0367 11.8654 15.905L8.87502 14.1108L5.88468 15.905C5.66517 16.0367 5.38962 16.0311 5.17566 15.8905C4.9617 15.75 4.84712 15.4993 4.88082 15.2456L5.68749 9.17222C5.73597 8.80724 6.07115 8.55066 6.43613 8.59914C6.80111 8.64762 7.05769 8.98279 7.00922 9.34778L6.38465 14.0501L8.53202 12.7617C8.74314 12.635 9.0069 12.635 9.21802 12.7617L11.3656 14.0502L10.7408 9.34102C10.6924 8.97602 10.949 8.64088 11.314 8.59246Z" fill="#fff"/>
</svg>
