<svg width="17" height="16" viewBox="0 0 17 16" fill="none" xmlns="http://www.w3.org/2000/svg">
<path fill-rule="evenodd" clip-rule="evenodd" d="M4.625 1.99935C4.25681 1.99935 3.95833 2.29783 3.95833 2.66602V13.3327C3.95833 13.7009 4.25681 13.9993 4.625 13.9993H12.625C12.9932 13.9993 13.2917 13.7009 13.2917 13.3327V2.66602C13.2917 2.29783 12.9932 1.99935 12.625 1.99935H4.625ZM2.625 2.66602C2.625 1.56145 3.52043 0.666016 4.625 0.666016H12.625C13.7296 0.666016 14.625 1.56145 14.625 2.66602V13.3327C14.625 14.4373 13.7296 15.3327 12.625 15.3327H4.625C3.52043 15.3327 2.625 14.4373 2.625 13.3327V2.66602Z" fill="#fff"/>
<path fill-rule="evenodd" clip-rule="evenodd" d="M5.95833 11.9993C5.95833 11.6312 6.25681 11.3327 6.625 11.3327H10.625C10.9932 11.3327 11.2917 11.6312 11.2917 11.9993V14.666C11.2917 15.0342 10.9932 15.3327 10.625 15.3327C10.2568 15.3327 9.95833 15.0342 9.95833 14.666V12.666H7.29167V14.666C7.29167 15.0342 6.99319 15.3327 6.625 15.3327C6.25681 15.3327 5.95833 15.0342 5.95833 14.666V11.9993Z" fill="#fff"/>
<path fill-rule="evenodd" clip-rule="evenodd" d="M5.29167 3.99935C5.29167 3.63116 5.59014 3.33268 5.95833 3.33268H5.965C6.33319 3.33268 6.63167 3.63116 6.63167 3.99935C6.63167 4.36754 6.33319 4.66602 5.965 4.66602H5.95833C5.59014 4.66602 5.29167 4.36754 5.29167 3.99935Z" fill="#fff"/>
<path fill-rule="evenodd" clip-rule="evenodd" d="M10.625 3.99935C10.625 3.63116 10.9235 3.33268 11.2917 3.33268H11.2983C11.6665 3.33268 11.965 3.63116 11.965 3.99935C11.965 4.36754 11.6665 4.66602 11.2983 4.66602H11.2917C10.9235 4.66602 10.625 4.36754 10.625 3.99935Z" fill="#fff"/>
<path fill-rule="evenodd" clip-rule="evenodd" d="M7.95833 3.99935C7.95833 3.63116 8.25681 3.33268 8.625 3.33268H8.63167C8.99986 3.33268 9.29833 3.63116 9.29833 3.99935C9.29833 4.36754 8.99986 4.66602 8.63167 4.66602H8.625C8.25681 4.66602 7.95833 4.36754 7.95833 3.99935Z" fill="#fff"/>
<path fill-rule="evenodd" clip-rule="evenodd" d="M7.95833 6.66602C7.95833 6.29783 8.25681 5.99935 8.625 5.99935H8.63167C8.99986 5.99935 9.29833 6.29783 9.29833 6.66602C9.29833 7.0342 8.99986 7.33268 8.63167 7.33268H8.625C8.25681 7.33268 7.95833 7.0342 7.95833 6.66602Z" fill="#fff"/>
<path fill-rule="evenodd" clip-rule="evenodd" d="M7.95833 9.33268C7.95833 8.96449 8.25681 8.66602 8.625 8.66602H8.63167C8.99986 8.66602 9.29833 8.96449 9.29833 9.33268C9.29833 9.70087 8.99986 9.99935 8.63167 9.99935H8.625C8.25681 9.99935 7.95833 9.70087 7.95833 9.33268Z" fill="#fff"/>
<path fill-rule="evenodd" clip-rule="evenodd" d="M10.625 6.66602C10.625 6.29783 10.9235 5.99935 11.2917 5.99935H11.2983C11.6665 5.99935 11.965 6.29783 11.965 6.66602C11.965 7.0342 11.6665 7.33268 11.2983 7.33268H11.2917C10.9235 7.33268 10.625 7.0342 10.625 6.66602Z" fill="#fff"/>
<path fill-rule="evenodd" clip-rule="evenodd" d="M10.625 9.33268C10.625 8.96449 10.9235 8.66602 11.2917 8.66602H11.2983C11.6665 8.66602 11.965 8.96449 11.965 9.33268C11.965 9.70087 11.6665 9.99935 11.2983 9.99935H11.2917C10.9235 9.99935 10.625 9.70087 10.625 9.33268Z" fill="#fff"/>
<path fill-rule="evenodd" clip-rule="evenodd" d="M5.29167 6.66602C5.29167 6.29783 5.59014 5.99935 5.95833 5.99935H5.965C6.33319 5.99935 6.63167 6.29783 6.63167 6.66602C6.63167 7.0342 6.33319 7.33268 5.965 7.33268H5.95833C5.59014 7.33268 5.29167 7.0342 5.29167 6.66602Z" fill="#fff"/>
<path fill-rule="evenodd" clip-rule="evenodd" d="M5.29167 9.33268C5.29167 8.96449 5.59014 8.66602 5.95833 8.66602H5.965C6.33319 8.66602 6.63167 8.96449 6.63167 9.33268C6.63167 9.70087 6.33319 9.99935 5.965 9.99935H5.95833C5.59014 9.99935 5.29167 9.70087 5.29167 9.33268Z" fill="#fff"/>
</svg>
