<svg width="21" height="20" viewBox="0 0 21 20" fill="none" xmlns="http://www.w3.org/2000/svg">
<path fill-rule="evenodd" clip-rule="evenodd" d="M4.51135 4.16665C4.05112 4.16665 3.67802 4.53974 3.67802 4.99998V16.6666C3.67802 17.1269 4.05112 17.5 4.51135 17.5H16.178C16.6383 17.5 17.0114 17.1269 17.0114 16.6666V4.99998C17.0114 4.53974 16.6383 4.16665 16.178 4.16665H4.51135ZM2.01135 4.99998C2.01135 3.61927 3.13064 2.49998 4.51135 2.49998H16.178C17.5587 2.49998 18.678 3.61927 18.678 4.99998V16.6666C18.678 18.0474 17.5587 19.1666 16.178 19.1666H4.51135C3.13064 19.1666 2.01135 18.0474 2.01135 16.6666V4.99998Z" fill="#fff"/>
<path fill-rule="evenodd" clip-rule="evenodd" d="M13.678 0.833313C14.1383 0.833313 14.5114 1.20641 14.5114 1.66665V4.99998C14.5114 5.46022 14.1383 5.83331 13.678 5.83331C13.2178 5.83331 12.8447 5.46022 12.8447 4.99998V1.66665C12.8447 1.20641 13.2178 0.833313 13.678 0.833313Z" fill="#fff"/>
<path fill-rule="evenodd" clip-rule="evenodd" d="M7.01135 0.833313C7.47159 0.833313 7.84469 1.20641 7.84469 1.66665V4.99998C7.84469 5.46022 7.47159 5.83331 7.01135 5.83331C6.55112 5.83331 6.17802 5.46022 6.17802 4.99998V1.66665C6.17802 1.20641 6.55112 0.833313 7.01135 0.833313Z" fill="#fff"/>
<path fill-rule="evenodd" clip-rule="evenodd" d="M2.01135 8.33331C2.01135 7.87308 2.38445 7.49998 2.84469 7.49998H17.8447C18.3049 7.49998 18.678 7.87308 18.678 8.33331C18.678 8.79355 18.3049 9.16665 17.8447 9.16665H2.84469C2.38445 9.16665 2.01135 8.79355 2.01135 8.33331Z" fill="#fff"/>
</svg>
