<svg width="20" height="20" viewBox="0 0 20 20" fill="none" xmlns="http://www.w3.org/2000/svg">
<path d="M2.5 18.3327C2.28333 18.3327 2.06666 18.2493 1.90833 18.091C1.68333 17.866 1.60833 17.541 1.70833 17.241L3.18333 12.8077C2.73333 11.791 2.5 10.691 2.5 9.58268C2.5 8.11602 2.90833 6.67435 3.68333 5.42435C4.45833 4.17435 5.55833 3.16602 6.875 2.50768C7.96666 1.95768 9.18333 1.66602 10.4 1.66602C10.4083 1.66602 10.4167 1.66602 10.4167 1.66602H10.8333C12.825 1.77435 14.65 2.59102 16.0333 3.96602C17.4083 5.34102 18.225 7.17435 18.3333 9.11602V9.57435C18.3333 10.7993 18.05 12.0243 17.4917 13.116C16.8333 14.4327 15.825 15.5327 14.575 16.3077C13.325 17.091 11.8917 17.4993 10.4167 17.4993C9.31666 17.541 8.20833 17.266 7.19166 16.816L2.75833 18.291C2.675 18.316 2.59166 18.3327 2.5 18.3327ZM10.4 3.33268C9.44166 3.33268 8.48333 3.55768 7.625 3.99102C6.58333 4.51602 5.71666 5.30768 5.1 6.29935C4.49166 7.28268 4.16666 8.42435 4.16666 9.58268C4.16666 10.5493 4.39166 11.516 4.825 12.3743C4.925 12.5743 4.94166 12.7993 4.875 13.016L3.81666 16.1827L6.98333 15.1243C7.19166 15.0577 7.425 15.0743 7.625 15.1743C8.48333 15.6077 9.44166 15.8327 10.4 15.8327C10.4083 15.8327 10.4083 15.8327 10.4167 15.8327C11.5833 15.8327 12.7167 15.5077 13.7083 14.8993C14.6917 14.291 15.4917 13.416 16.0083 12.3743C16.4417 11.516 16.6667 10.5493 16.6667 9.58268V9.16602C16.5833 7.67435 15.9417 6.23268 14.85 5.14935C13.7667 4.06602 12.3167 3.41602 10.7833 3.33268H10.4167C10.4083 3.33268 10.4083 3.33268 10.4 3.33268Z" fill="#fff"/>
</svg>
